<svg width="1024" height="61" viewBox="0 0 1024 61" fill="none" xmlns="http://www.w3.org/2000/svg">
<rect width="230" height="60" fill="#333333"/>
<path d="M252.668 30.0258L230 60.0517L230 -1.35481e-06L252.668 30.0258Z" fill="#333333"/>
<path d="M498.571 30.0258L475.904 60.0517L475.904 -1.35481e-06L498.571 30.0258Z" fill="#333333"/>
<path d="M745.668 30.0258L723 60.0517L723 -1.35481e-06L745.668 30.0258Z" fill="#333333"/>
<path d="M991.597 30.0258L968.929 60.0517L968.929 -1.35481e-06L991.597 30.0258Z" fill="#333333"/>
<path d="M246.392 0H269.06V30.0258V60.0517H246.392L269.06 30.0258L246.392 0Z" fill="#333333"/>
<path d="M493.904 0H516.572V30.0258V60.0517H493.904L516.572 30.0258L493.904 0Z" fill="#333333"/>
<path d="M739.417 0H762.085V30.0258V60.0517H739.417L762.085 30.0258L739.417 0Z" fill="#333333"/>
<path d="M986.93 0H1009.6V30.0258V60.0517H986.93L1009.6 30.0258L986.93 0Z" fill="#333333"/>
<rect x="269" width="207" height="60" fill="#333333"/>
<rect x="516" width="207" height="60" fill="#333333"/>
<rect x="762" width="207" height="60" fill="#333333"/>
<rect x="1009" width="207" height="60" fill="#333333"/>
</svg>
