<svg width="149" height="55" viewBox="0 0 149 55" fill="none" xmlns="http://www.w3.org/2000/svg">
<g clip-path="url(#clip0)">
<path d="M38.9297 45.4842L22.8807 0.723267L6.8363 45.4796C8.78928 43.1076 11.2405 41.198 14.0148 39.8872C16.789 38.5764 19.8176 37.897 22.8841 37.8974C25.9505 37.8979 28.979 38.5782 31.7528 39.8897C34.5267 41.2013 36.9774 43.1116 38.9297 45.4842Z" fill="url(#paint0_linear)"/>
<g style="mix-blend-mode:multiply" opacity="0.08">
<g style="mix-blend-mode:multiply" opacity="0.08">
<g style="mix-blend-mode:multiply" opacity="0.08">
<path d="M38.9297 45.4842L22.8807 0.723267L6.8363 45.4796C8.78622 43.1049 11.2364 41.1933 14.0106 39.8823C16.7849 38.5713 19.8141 37.8934 22.8807 37.8975C17.0748 37.8975 13.8727 38.5972 12.1267 39.2884L22.8807 3.89449L33.8671 39.3844C32.1799 38.666 28.9506 37.8975 22.8807 37.8975C25.9484 37.8938 28.9787 38.5722 31.7537 39.884C34.5287 41.1958 36.9795 43.1084 38.9297 45.4842Z" fill="black"/>
</g>
</g>
</g>
<path d="M42.3586 27.3173L22.8804 0.723145L24.2758 4.61285C24.2809 4.62274 24.2839 4.6336 24.2848 4.64468L38.9293 45.484L39.4216 46.8659L41.9847 54.0086L42.094 54.3105L42.1127 54.3611L42.1218 54.3042L42.1903 53.9706L42.5733 52.0072L44.0735 44.3608C44.0743 44.3393 44.0773 44.318 44.0826 44.2972L45.0457 39.3962C45.2152 38.5369 45.3083 37.6641 45.3238 36.7883C45.4094 33.3888 44.3663 30.0571 42.3586 27.3173Z" fill="url(#paint1_linear)"/>
<g style="mix-blend-mode:screen" opacity="0.25">
<g style="mix-blend-mode:screen" opacity="0.25">
<g style="mix-blend-mode:screen" opacity="0.25">
<path d="M43.713 41.4574L25.8624 6.34265L39.7863 45.1732L40.2786 46.5596L41.8519 50.9364L43.713 41.4574Z" fill="white"/>
</g>
</g>
</g>
<g style="mix-blend-mode:screen" opacity="0.3">
<g style="mix-blend-mode:screen" opacity="0.3">
<g style="mix-blend-mode:screen" opacity="0.3">
<path d="M44.0824 44.2989C43.7085 45.9644 43.3459 47.6344 42.9879 49.3096C42.6734 50.746 42.3647 52.1829 42.0667 53.6244L40.1404 48.0511L37.9423 41.8189L35.7396 35.5913C35.0099 33.5137 34.2433 31.4498 33.4955 29.3773L31.2441 23.1679C30.5007 21.0948 29.7144 19.036 28.9546 16.9721C28.1796 14.9087 27.425 12.8402 26.6381 10.7854C25.8512 8.73055 25.0784 6.66263 24.2756 4.61292C24.2807 4.62281 24.2838 4.63366 24.2847 4.64475L38.9292 45.4841L39.4215 46.8659L41.9845 54.0087C41.9618 54.1138 41.9437 54.219 41.9211 54.3242L42.0939 54.3105L42.1126 54.3611L42.1216 54.3043L42.2995 54.2906L42.1901 53.9706L42.5732 52.0073L44.0734 44.3609C44.0743 44.34 44.0773 44.3192 44.0824 44.2989Z" fill="white"/>
</g>
</g>
</g>
<g style="mix-blend-mode:multiply" opacity="0.2">
<g style="mix-blend-mode:multiply" opacity="0.2">
<g style="mix-blend-mode:multiply" opacity="0.2">
<path d="M42.3586 27.3174L22.8804 0.723267C23.6327 1.84476 24.4032 2.95659 25.1698 4.06842C25.9363 5.18026 26.7158 6.28528 27.4926 7.38575L29.8324 10.694L32.1949 13.984C33.7772 16.1667 35.3675 18.354 36.9696 20.5208L39.378 23.7739C40.1893 24.8539 40.9921 25.9384 41.8141 27.0139L41.8187 27.023L41.8232 27.0275C42.1015 27.3664 42.3605 27.721 42.5988 28.0893C42.8407 28.4645 43.0685 28.8442 43.2786 29.2376C43.4888 29.6309 43.6848 30.0294 43.8673 30.4364L44.1228 31.0542C44.2095 31.26 44.2774 31.4708 44.3551 31.6794C44.4327 31.888 44.5058 32.1007 44.5698 32.3156C44.6338 32.5304 44.7063 32.7407 44.7613 32.9561L44.9205 33.6104C44.9759 33.8276 45.0202 34.0474 45.053 34.2692C45.0893 34.4891 45.1443 34.7086 45.1663 34.9326L45.244 35.601C45.2944 35.9944 45.3035 36.3877 45.3261 36.7862C45.4106 33.3871 44.3667 30.0563 42.3586 27.3174Z" fill="black"/>
</g>
</g>
</g>
<path d="M3.40421 27.3174L22.883 0.722656L21.487 4.61236C21.4819 4.62225 21.4788 4.63311 21.478 4.64419L6.83405 45.4841L6.34116 46.8659L3.77813 54.0087L3.66879 54.3105L3.65066 54.3611L3.64159 54.3043L3.57304 53.9706L3.19006 52.0073L1.6893 44.3626C1.68851 44.3411 1.68547 44.3198 1.68023 44.2989L0.717122 39.398C0.548066 38.5386 0.45517 37.6659 0.439517 36.7901C0.353301 33.39 1.39623 30.0577 3.40421 27.3174Z" fill="url(#paint2_linear)"/>
<g style="mix-blend-mode:screen" opacity="0.25">
<g style="mix-blend-mode:screen" opacity="0.25">
<g style="mix-blend-mode:screen" opacity="0.25">
<path d="M2.04944 41.4574L19.9 6.34265L5.97616 45.1726L5.4838 46.559L3.91052 50.9359L2.04944 41.4574Z" fill="white"/>
</g>
</g>
</g>
<g style="mix-blend-mode:screen" opacity="0.3">
<g style="mix-blend-mode:screen" opacity="0.3">
<g style="mix-blend-mode:screen" opacity="0.3">
<path d="M1.67993 44.2989C2.05385 45.9644 2.41643 47.6344 2.77448 49.3096C3.08948 50.7458 3.39655 52.1841 3.69568 53.6244L5.62192 48.0511L7.82065 41.8189L10.0234 35.5913C10.7531 33.5137 11.519 31.4498 12.2669 29.3773L14.5183 23.1679C15.2616 21.0948 16.0479 19.036 16.8077 16.9721C17.5833 14.9087 18.3373 12.8402 19.1248 10.7854C19.9123 8.73055 20.6845 6.66263 21.4867 4.61292C21.4816 4.62281 21.4785 4.63366 21.4777 4.64475L6.83374 45.4841L6.34085 46.8659L3.77782 54.0087C3.80049 54.1138 3.81919 54.219 3.84185 54.3242L3.66849 54.3105L3.65036 54.3611L3.64129 54.3043L3.4634 54.2906L3.57274 53.9706L3.18976 52.0073L1.689 44.3626C1.6882 44.3411 1.68517 44.3198 1.67993 44.2989Z" fill="white"/>
</g>
</g>
</g>
<g style="mix-blend-mode:multiply" opacity="0.2">
<g style="mix-blend-mode:multiply" opacity="0.2">
<g style="mix-blend-mode:multiply" opacity="0.2">
<path d="M3.40405 27.3174L22.8828 0.722656C22.1299 1.84415 21.3594 2.95599 20.5934 4.06782C19.8274 5.17965 19.0474 6.28466 18.2706 7.38512L15.9314 10.6933L13.5689 13.9834C11.9859 16.1661 10.3991 18.3534 8.79349 20.5202L6.38569 23.7733C5.57389 24.8533 4.77111 25.9378 3.94962 27.0133L3.94509 27.0224L3.94056 27.0269C3.6622 27.3657 3.40343 27.7202 3.16553 28.0887C2.92362 28.4639 2.6953 28.8436 2.48568 29.2369C2.27606 29.6303 2.07947 30.0287 1.89705 30.4357L1.64211 31.0536C1.55543 31.2594 1.48687 31.4703 1.40926 31.6789C1.33164 31.8875 1.25912 32.1001 1.19511 32.3149C1.13109 32.5298 1.058 32.7401 1.00362 32.9555L0.843851 33.6098C0.788364 33.8269 0.744117 34.0469 0.711281 34.2686C0.675022 34.4886 0.620068 34.708 0.597973 34.9319L0.520357 35.6004C0.470502 35.9938 0.463705 36.3871 0.438777 36.7856C0.353736 33.3869 1.39682 30.0564 3.40405 27.3174Z" fill="black"/>
</g>
</g>
</g>
<path d="M27.6352 39.2832H18.4289L16.6726 43.5463H11.9703L20.8084 23.6516H25.3407L34.207 43.5463H29.3914L27.6352 39.2832ZM26.1905 35.7874L23.0462 28.1705L19.9019 35.7874H26.1905ZM57.2599 28.0284C59.1488 28.0284 60.6688 28.5968 61.8206 29.7337C62.9916 30.8705 63.5769 32.5569 63.5769 34.7926V43.5463H59.1578V35.4747C59.1578 34.2621 58.8938 33.3622 58.3647 32.7747C57.8361 32.1685 57.0713 31.8653 56.0702 31.8653C54.9564 31.8653 54.0686 32.2158 53.4075 32.9169C52.7468 33.599 52.4162 34.6221 52.4162 35.9863V43.5463H47.9972V28.2558H52.218V30.0463C52.8034 29.4021 53.5304 28.9095 54.3989 28.5684C55.268 28.2084 56.2215 28.0284 57.2599 28.0284ZM67.5829 28.2558H72.0019V43.5463H67.5829V28.2558ZM69.7924 26.1242C68.9799 26.1242 68.3194 25.8874 67.8095 25.4137C67.2996 24.94 67.0446 24.3527 67.0446 23.6516C67.0446 22.9506 67.2996 22.3632 67.8095 21.8895C68.3194 21.4158 68.9799 21.179 69.7924 21.179C70.6042 21.179 71.2654 21.4063 71.7753 21.8611C72.2851 22.3158 72.5401 22.8842 72.5401 23.5663C72.5401 24.3053 72.2851 24.9211 71.7753 25.4137C71.2654 25.8874 70.6042 26.1242 69.7924 26.1242ZM95.6203 28.0284C97.5273 28.0284 99.0383 28.5968 100.153 29.7337C101.286 30.8516 101.852 32.5379 101.852 34.7926V43.5463H97.4333V35.4747C97.4333 34.2621 97.1783 33.3622 96.6684 32.7747C96.1773 32.1685 95.4691 31.8653 94.5439 31.8653C93.5049 31.8653 92.6834 32.2063 92.0795 32.8884C91.475 33.5516 91.173 34.5463 91.173 35.8726V43.5463H86.754V35.4747C86.754 33.0684 85.7909 31.8653 83.8646 31.8653C82.8449 31.8653 82.0324 32.2063 81.4285 32.8884C80.824 33.5516 80.5221 34.5463 80.5221 35.8726V43.5463H76.1031V28.2558H80.3238V30.0179C80.8903 29.3737 81.5792 28.8811 82.3916 28.54C83.2222 28.199 84.1286 28.0284 85.111 28.0284C86.1874 28.0284 87.1596 28.2464 88.0287 28.6821C88.8972 29.099 89.5958 29.7148 90.1249 30.5295C90.7481 29.7337 91.5316 29.1179 92.476 28.6821C93.4392 28.2464 94.4873 28.0284 95.6203 28.0284ZM111.96 28.0284C114.321 28.0284 116.134 28.5968 117.399 29.7337C118.664 30.8516 119.297 32.5474 119.297 34.8211V43.5463H115.161V41.6421C114.33 43.0632 112.781 43.7737 110.515 43.7737C109.345 43.7737 108.325 43.5747 107.456 43.1768C106.606 42.779 105.955 42.2295 105.501 41.5284C105.048 40.8274 104.822 40.0316 104.822 39.1411C104.822 37.72 105.351 36.6021 106.408 35.7874C107.484 34.9727 109.137 34.5653 111.365 34.5653H114.878C114.878 33.599 114.585 32.86 113.999 32.3484C113.414 31.8179 112.536 31.5526 111.365 31.5526C110.553 31.5526 109.75 31.6853 108.957 31.9505C108.183 32.1969 107.522 32.5379 106.974 32.9737L105.388 29.8758C106.219 29.2884 107.211 28.8337 108.362 28.5116C109.533 28.1895 110.733 28.0284 111.96 28.0284ZM111.62 40.7895C112.376 40.7895 113.046 40.619 113.631 40.2779C114.217 39.9179 114.632 39.3968 114.878 38.7147V37.1516H111.847C110.034 37.1516 109.127 37.7484 109.127 38.9421C109.127 39.5105 109.345 39.9653 109.779 40.3063C110.232 40.6284 110.846 40.7895 111.62 40.7895ZM123.296 22.4579H127.715V43.5463H123.296V22.4579ZM136.944 43.7737C135.678 43.7737 134.441 43.6221 133.233 43.319C132.024 42.9969 131.061 42.599 130.344 42.1253L131.817 38.9421C132.496 39.3779 133.318 39.7379 134.281 40.0221C135.244 40.2874 136.188 40.42 137.114 40.42C138.983 40.42 139.918 39.9558 139.918 39.0274C139.918 38.5916 139.663 38.279 139.153 38.0895C138.643 37.9 137.859 37.739 136.802 37.6063C135.556 37.4169 134.526 37.199 133.714 36.9526C132.902 36.7063 132.194 36.2705 131.59 35.6453C131.004 35.02 130.712 34.1295 130.712 32.9737C130.712 32.0074 130.985 31.1547 131.533 30.4158C132.1 29.6579 132.912 29.0706 133.969 28.6537C135.046 28.2369 136.311 28.0284 137.765 28.0284C138.842 28.0284 139.908 28.1516 140.966 28.3979C142.043 28.6253 142.93 28.9474 143.629 29.3642L142.156 32.519C140.815 31.7611 139.352 31.3821 137.765 31.3821C136.821 31.3821 136.113 31.5148 135.641 31.78C135.168 32.0453 134.933 32.3863 134.933 32.8032C134.933 33.2769 135.187 33.6084 135.697 33.7979C136.207 33.9874 137.019 34.1674 138.133 34.3379C139.38 34.5463 140.4 34.7737 141.193 35.02C141.986 35.2474 142.675 35.6737 143.261 36.299C143.846 36.9242 144.139 37.7958 144.139 38.9137C144.139 39.8611 143.856 40.7042 143.289 41.4432C142.722 42.1821 141.891 42.76 140.796 43.1768C139.72 43.5747 138.435 43.7737 136.944 43.7737Z" fill="#333333"/>
</g>
<defs>
<linearGradient id="paint0_linear" x1="-58.8267" y1="-206.833" x2="-58.8267" y2="-171.338" gradientUnits="userSpaceOnUse">
<stop stop-color="#EB643F"/>
<stop offset="1" stop-color="#FA8900"/>
</linearGradient>
<linearGradient id="paint1_linear" x1="-47.6299" y1="-154.827" x2="-47.6299" y2="-207.767" gradientUnits="userSpaceOnUse">
<stop stop-color="#FCC400"/>
<stop offset="0.162" stop-color="#FBC000"/>
<stop offset="0.307" stop-color="#FBB500"/>
<stop offset="0.446" stop-color="#FBA300"/>
<stop offset="0.581" stop-color="#FA8900"/>
<stop offset="0.712" stop-color="#FA6800"/>
<stop offset="0.842" stop-color="#F93F00"/>
<stop offset="0.967" stop-color="#F81000"/>
<stop offset="1" stop-color="#F80300"/>
</linearGradient>
<linearGradient id="paint2_linear" x1="-1148.16" y1="-154.829" x2="-1148.16" y2="-207.77" gradientUnits="userSpaceOnUse">
<stop stop-color="#FCC400"/>
<stop offset="0.162" stop-color="#FBC000"/>
<stop offset="0.307" stop-color="#FBB500"/>
<stop offset="0.446" stop-color="#FBA300"/>
<stop offset="0.581" stop-color="#FA8900"/>
<stop offset="0.712" stop-color="#FA6800"/>
<stop offset="0.842" stop-color="#F93F00"/>
<stop offset="0.967" stop-color="#F81000"/>
<stop offset="1" stop-color="#F80300"/>
</linearGradient>
<clipPath id="clip0">
<rect width="149" height="54" fill="white" transform="translate(0 0.5)"/>
</clipPath>
</defs>
</svg>
