<svg width="1256" height="62" viewBox="0 0 1256 62" fill="none" xmlns="http://www.w3.org/2000/svg">
<rect width="214" height="62" fill="#333333"/>
<path d="M237.403 31L214 62L214 -1.39876e-06L237.403 31Z" fill="#333333"/>
<path d="M492.403 31L469 62L469 -1.39876e-06L492.403 31Z" fill="#333333"/>
<path d="M746.403 31L723 62L723 -1.39876e-06L746.403 31Z" fill="#333333"/>
<path d="M1001.4 31L978 62L978 -1.39876e-06L1001.4 31Z" fill="#333333"/>
<path d="M1255.4 31L1232 62L1232 -1.39876e-06L1255.4 31Z" fill="#333333"/>
<path d="M232.107 0H255.51V31V62H232.107L255.51 31L232.107 0Z" fill="#333333"/>
<path d="M485.618 0H509.021V31V62H485.618L509.021 31L485.618 0Z" fill="#333333"/>
<path d="M741.128 0H764.531V31V62H741.128L764.531 31L741.128 0Z" fill="#333333"/>
<path d="M994.639 0H1018.04V31V62H994.639L1018.04 31L994.639 0Z" fill="#333333"/>
<rect x="255" width="214" height="62" fill="#333333"/>
<rect x="509" width="214" height="62" fill="#333333"/>
<rect x="764" width="214" height="62" fill="#333333"/>
<rect x="1018" width="214" height="62" fill="#333333"/>
</svg>
