<svg width="768" height="61" viewBox="0 0 768 61" fill="none" xmlns="http://www.w3.org/2000/svg">
<rect width="230" height="60" fill="#333333"/>
<path d="M252.668 30.0258L230 60.0517L230 -1.35481e-06L252.668 30.0258Z" fill="#333333"/>
<path d="M498.668 30.0258L476 60.0517L476 -1.35481e-06L498.668 30.0258Z" fill="#333333"/>
<path d="M745.668 30.0258L723 60.0517L723 -1.35481e-06L745.668 30.0258Z" fill="#333333"/>
<path d="M246.604 0H269.272V30.0258V60.0517H246.604L269.272 30.0258L246.604 0Z" fill="#333333"/>
<path d="M494 0H516.668V30.0258V60.0517H494L516.668 30.0258L494 0Z" fill="#333333"/>
<path d="M739.63 0H762.298V30.0258V60.0517H739.63L762.298 30.0258L739.63 0Z" fill="#333333"/>
<rect x="269" width="207" height="60" fill="#333333"/>
<rect x="516" width="207" height="60" fill="#333333"/>
<rect x="762" width="207" height="60" fill="#333333"/>
</svg>
